<?xml version="1.0" standalone="no"?>
<!DOCTYPE svg PUBLIC "-//W3C//DTD SVG 20010904//EN"
 "http://www.w3.org/TR/2001/REC-SVG-20010904/DTD/svg10.dtd">
<svg version="1.0" xmlns="http://www.w3.org/2000/svg"
 width="300.000000pt" height="300.000000pt" viewBox="0 0 300.000000 300.000000"
 preserveAspectRatio="xMidYMid meet">
<metadata>
Created by potrace 1.10, written by Peter Selinger 2001-2011
</metadata>
<g transform="translate(0.000000,300.000000) scale(0.100000,-0.100000)"
fill="#E7EBED" stroke="none">
<path d="M123 2914 c-106 -93 -123 -111 -123 -130 0 -17 28 -44 45 -44 21 0
218 178 230 207 8 20 6 28 -10 39 -10 8 -25 14 -32 14 -7 0 -57 -39 -110 -86z"/>
<path d="M2843 2989 c-14 -5 -23 -17 -23 -29 0 -29 90 -252 111 -274 17 -18
19 -18 43 -2 14 9 26 22 26 29 -1 30 -100 263 -117 273 -11 8 -26 9 -40 3z"/>
<path d="M840 2974 c-79 -34 -124 -107 -124 -199 1 -68 17 -105 66 -152 70
-68 158 -81 247 -37 158 79 156 313 -3 385 -50 23 -138 24 -186 3z m145 -78
c51 -22 77 -69 72 -130 -4 -42 -10 -55 -41 -83 -110 -101 -274 37 -196 165 34
55 100 75 165 48z" fill="#FEF3E7"/>
<path d="M2403 2770 l-92 -59 -101 46 c-102 45 -141 50 -153 19 -3 -7 7 -63
22 -123 l28 -110 -79 -87 c-43 -47 -78 -92 -78 -99 1 -35 20 -42 137 -52 l117
-10 56 -94 c86 -147 103 -147 165 2 22 53 45 100 50 105 6 5 51 17 100 27 123
25 135 30 135 59 0 17 -19 42 -67 85 -71 64 -105 75 -123 42 -15 -29 -13 -37
22 -69 l31 -30 -59 -12 c-108 -21 -106 -20 -140 -104 l-32 -77 -35 64 c-20 35
-42 69 -49 74 -7 6 -48 14 -90 18 l-78 7 56 64 56 64 -16 62 c-9 35 -18 72
-22 84 -5 20 -1 19 63 -12 79 -39 95 -40 131 -16 15 10 44 29 65 41 l38 23 -3
-37 c-3 -51 43 -85 70 -52 8 9 32 149 32 184 0 9 -35 33 -48 32 -9 0 -58 -27
-109 -59z m107 -30 c0 -44 -10 -49 -46 -21 -22 17 -22 19 -6 33 14 13 28 21
50 27 1 1 2 -17 2 -39z m-354 -4 c19 -14 18 -15 -5 -40 -27 -28 -35 -25 -45
15 -9 40 13 52 50 25z m471 -298 c23 -21 31 -48 14 -48 -5 0 -24 -3 -42 -7
l-34 -6 18 26 c9 14 14 33 11 41 -9 22 6 20 33 -6z m-561 -24 c-3 -8 1 -26 10
-40 l16 -24 -41 0 c-48 0 -52 13 -14 52 30 32 38 35 29 12z m295 -196 c29 19
33 10 13 -32 -21 -44 -34 -45 -57 -7 -23 40 -22 54 3 39 16 -10 24 -10 41 0z" fill="#FEF3E7"/>
<path d="M1673 2561 c-15 -12 -45 -20 -97 -24 -87 -6 -133 -29 -165 -81 -17
-27 -21 -50 -21 -120 0 -79 -2 -89 -25 -111 -20 -21 -33 -25 -88 -25 -85 0
-142 -29 -175 -91 -21 -39 -23 -52 -17 -116 6 -68 5 -74 -19 -98 -20 -19 -35
-25 -71 -25 -96 0 -185 -43 -185 -88 0 -41 49 -55 83 -25 13 12 43 20 98 24
87 6 117 21 157 79 19 28 22 46 22 120 0 111 12 125 117 133 78 6 103 16 146
55 35 34 50 90 42 162 -6 51 -4 60 18 86 22 26 33 29 105 34 67 5 86 11 116
34 41 31 48 69 17 86 -26 13 -32 13 -58 -9z"/>
<path d="M272 2348 c-7 -7 -12 -19 -12 -28 0 -21 196 -240 214 -240 19 0 48
36 44 54 -1 8 -45 62 -97 120 -94 106 -120 123 -149 94z"/>
<path d="M2705 2081 c-126 -47 -130 -49 -133 -79 -6 -57 19 -57 174 1 119 44
139 55 142 75 4 27 -14 52 -37 52 -9 -1 -74 -23 -146 -49z"  fill="#FEF3E7"/>
<path d="M72 1858 c-7 -7 -12 -31 -12 -54 0 -26 -9 -57 -22 -79 -44 -75 -40
-181 8 -226 14 -13 51 -37 82 -54 35 -19 62 -41 70 -58 13 -27 11 -34 -16 -87
-42 -79 -48 -121 -28 -174 20 -52 40 -71 114 -111 35 -18 62 -41 70 -58 12
-26 11 -34 -18 -94 -38 -78 -46 -128 -28 -163 29 -54 94 -26 82 35 -4 25 1 46
25 91 61 116 34 202 -82 264 -100 52 -106 72 -57 170 61 121 26 211 -105 269
-73 32 -81 66 -35 163 16 34 30 79 30 98 0 62 -45 101 -78 68z m-22 -250 c0
-30 -1 -31 -17 -16 -13 14 -14 20 -3 32 18 22 20 20 20 -16z"/>
<path d="M1805 1841 c-169 -78 -165 -324 7 -395 158 -67 327 71 296 241 -24
134 -178 212 -303 154z m165 -90 c63 -44 74 -131 24 -190 -77 -92 -224 -37
-224 84 0 107 113 167 200 106z"  fill="#FEF3E7"/>
<path d="M2582 1618 c-25 -25 -10 -53 84 -159 97 -110 119 -123 148 -93 24 24
20 34 -40 104 -138 159 -162 178 -192 148z"/>
<path d="M605 1420 c-9 -10 -15 -26 -12 -34 4 -9 48 -63 99 -121 93 -104 118
-121 146 -93 24 24 10 49 -80 150 -118 133 -120 134 -153 98z"/>
<path d="M2338 1279 c-10 -5 -18 -16 -18 -23 0 -17 -36 -46 -94 -76 -101 -50
-127 -149 -67 -254 17 -31 31 -66 31 -79 0 -33 -32 -71 -72 -87 -58 -23 -90
-52 -110 -98 -25 -56 -19 -106 22 -178 17 -28 30 -60 30 -70 0 -33 -29 -63
-90 -94 -77 -39 -121 -101 -100 -141 7 -12 21 -19 41 -19 24 0 32 6 41 30 7
23 25 38 67 59 131 67 158 157 86 283 -45 79 -31 109 83 170 37 20 55 38 71
70 29 61 27 93 -15 177 -51 103 -46 115 73 182 37 21 59 41 73 70 20 38 20 42
5 65 -17 26 -30 29 -57 13z"/>
<path d="M1401 1200 c-96 -13 -127 -21 -137 -35 -17 -23 -17 -27 0 -50 13 -18
17 -18 157 -1 79 10 150 22 157 28 15 13 16 50 0 66 -14 14 -18 14 -177 -8z"/>
<path d="M2740 960 c-103 -18 -180 -109 -180 -212 0 -110 116 -238 168 -186
21 21 14 56 -17 74 -87 51 -78 191 14 230 48 20 77 18 116 -9 73 -49 87 -132
34 -196 -30 -35 -31 -52 -7 -74 25 -23 34 -21 64 11 42 44 58 86 58 150 0 136
-117 235 -250 212z" fill="#FEF3E7"/>
<path d="M982 883 c-5 -10 -18 -53 -27 -95 -15 -63 -16 -80 -5 -92 29 -36 80
-9 80 43 0 33 12 25 60 -39 25 -33 52 -62 60 -65 8 -3 47 -1 85 4 39 5 72 7
74 5 2 -2 -15 -32 -38 -67 -22 -35 -41 -71 -41 -80 0 -10 14 -47 30 -84 35
-77 35 -77 13 -68 -10 4 -46 15 -79 25 -59 17 -63 17 -90 0 -16 -10 -45 -34
-63 -54 -19 -20 -39 -36 -43 -36 -4 0 -8 36 -8 80 0 89 5 82 -100 145 -46 29
-52 35 -35 40 59 19 66 25 63 52 -5 42 -29 50 -90 29 -106 -38 -123 -49 -123
-80 0 -25 10 -35 95 -86 l95 -58 7 -54 c3 -29 6 -81 7 -115 1 -55 4 -64 26
-79 29 -19 17 -26 134 76 l73 63 87 -23 c125 -34 157 -36 170 -12 9 16 2 41
-34 128 l-46 107 61 92 c95 144 86 160 -81 145 -62 -5 -116 -6 -120 -2 -3 4
-36 44 -73 90 -70 85 -104 103 -124 65z m90 -87 c9 -16 7 -18 -10 -14 -12 3
-29 0 -39 -8 -10 -7 -21 -14 -26 -14 -8 0 1 46 15 73 9 18 10 18 30 0 11 -10
24 -26 30 -37z m318 -115 c0 -6 -11 -23 -25 -38 -18 -21 -24 -24 -25 -12 0 9
-7 22 -15 29 -25 21 -17 30 25 30 22 0 40 -4 40 -9z m-560 -122 c-7 -11 -9
-32 -5 -46 l6 -26 -33 21 c-42 27 -46 45 -11 59 46 18 55 16 43 -8z m520 -251
c0 -20 -34 -25 -60 -8 -12 7 -11 13 10 35 23 24 25 25 37 9 7 -10 13 -26 13
-36z m-340 -58 c10 0 5 -9 -12 -26 -33 -33 -48 -24 -48 28 l0 41 23 -21 c13
-12 30 -22 37 -22z" fill="#FEF3E7"/>
<path d="M158 428 c-49 -13 -124 -80 -138 -123 -6 -20 -11 -62 -11 -96 0 -122
79 -199 205 -199 83 0 123 16 168 69 93 109 60 270 -67 334 -41 21 -112 28
-157 15z m121 -96 c19 -10 43 -34 53 -53 49 -91 -14 -189 -123 -189 -35 0 -48
6 -80 39 -33 32 -39 45 -39 80 0 109 98 172 189 123z m-229 -118 c0 -31 -2
-35 -15 -24 -16 13 -20 42 -8 53 15 15 23 5 23 -29z m190 -179 c-15 -19 -21
-19 -46 0 -18 13 -16 14 20 15 33 0 37 -2 26 -15z"/>
<path d="M2526 214 c-34 -33 -20 -52 97 -127 61 -40 120 -76 130 -80 29 -11
59 10 55 40 -2 21 -27 41 -126 104 -67 44 -126 79 -131 79 -5 0 -17 -7 -25
-16z"/>
</g>
</svg>
