<svg xmlns="http://www.w3.org/2000/svg" width="512" height="512" viewBox="0 0 512 512" version="1.1"><path d="M 224.455 2.455 C 221.132 5.777, 221.064 11.772, 224.314 14.826 C 226.380 16.766, 227.731 17, 236.872 17 L 247.115 17 246.807 21.250 L 246.500 25.500 238.500 26.201 C 201.630 29.433, 165.794 43.586, 135.500 66.883 C 119.117 79.482, 100.482 100.121, 89.309 118.043 C 73.550 143.323, 62.847 175.452, 60.424 204.750 L 59.742 213 50.006 213 C 41.764 213, 39.877 213.309, 37.712 215.012 C 34.442 217.584, 33.409 222.109, 35.249 225.797 C 38.069 231.450, 67.009 270.666, 69.221 271.833 C 70.976 272.758, 114.223 272.972, 257.449 272.767 L 443.398 272.500 460.699 248.526 C 475.501 228.015, 478 224.029, 478 220.931 C 478 214.874, 475.585 213.584, 463.161 213 L 452.522 212.500 451.411 201.500 C 446.845 156.268, 427.423 115.520, 394.951 83.049 C 362.479 50.577, 321.718 31.148, 276.500 26.590 L 265.500 25.482 265.193 21.241 L 264.885 17 275.193 16.968 C 286.390 16.934, 288.186 16.270, 290 11.500 C 291.266 8.170, 289.989 3.471, 287.254 1.395 C 285.888 0.358, 279.015 0.057, 256.205 0.032 L 226.909 0 224.455 2.455 M 244 43.577 C 228.421 45.351, 221.415 46.433, 214.500 48.133 C 141.047 66.189, 85.766 129.719, 78.219 204.750 L 77.389 213 256.244 213 L 435.099 213 434.464 206.750 C 430.712 169.836, 417.462 136.846, 395.606 110 C 367.011 74.876, 326.697 51.753, 282.468 45.106 C 274.747 43.946, 249.553 42.944, 244 43.577 M 241.890 60.026 C 194.321 64.209, 148.713 91.081, 121.461 130.985 C 115.712 139.403, 114.545 141.794, 114.545 145.161 C 114.545 152.201, 122.135 156.395, 127.752 152.461 C 128.961 151.614, 132.273 147.452, 135.112 143.211 C 161.356 104.010, 202.314 80.394, 249.262 77.392 C 258.909 76.775, 260.281 76.446, 262.512 74.216 C 265.722 71.005, 265.824 66.050, 262.750 62.548 C 259.985 59.398, 255.374 58.841, 241.890 60.026 M 67.615 240.750 C 71.335 246.113, 75.279 251.738, 76.378 253.250 L 78.376 256 256.143 256 L 433.910 256 440.795 246.250 C 444.581 240.887, 448.478 235.263, 449.455 233.750 L 451.230 231 256.040 231 L 60.851 231 67.615 240.750 M 124.500 281.610 C 106.751 284.204, 88.561 290.916, 69.607 301.863 C 64.715 304.688, 60.553 307, 60.357 307 C 60.160 307, 60 303.175, 60 298.500 L 60 290 30 290 L 0 290 0 401 L 0 512 30 512 L 60 512 60 499.613 L 60 487.227 129.250 486.676 C 167.338 486.373, 204.170 485.677, 211.101 485.129 C 222.599 484.220, 325.586 469.107, 344.500 465.553 C 349.044 464.699, 355.524 462.541, 359.500 460.557 C 364.458 458.084, 386.738 440.964, 435.871 401.877 C 505.936 346.136, 510.465 342.150, 511.242 335.554 C 511.375 334.424, 511.716 373.550, 512 422.500 L 512.516 511.500 512.544 400 C 512.559 338.675, 512.331 296.375, 512.036 306 C 511.689 317.333, 511.224 322.428, 510.717 320.459 C 509.582 316.058, 502.005 306.854, 496.530 303.228 C 487.655 297.349, 477.917 296.989, 463 301.987 C 450.644 306.127, 440.351 311.752, 403.500 334.504 C 383.150 347.068, 364.025 358.364, 361 359.607 C 354.714 362.190, 338.687 364.607, 322.204 365.458 C 311.218 366.025, 310.936 365.987, 311.954 364.086 C 313.340 361.497, 313.287 353.150, 311.857 348.899 C 307.867 337.035, 293.173 321.816, 278.759 314.618 C 264.040 307.268, 261.525 306.846, 227.500 306.023 C 194.875 305.234, 189.586 304.480, 177 298.829 C 173.425 297.224, 167.125 293.712, 163 291.025 C 158.875 288.338, 152.652 285.192, 149.170 284.033 C 142.972 281.969, 130.455 280.740, 124.500 281.610 M 0.483 401 C 0.483 462.325, 0.603 487.413, 0.750 456.750 C 0.897 426.087, 0.897 375.913, 0.750 345.250 C 0.603 314.587, 0.483 339.675, 0.483 401 M 112 302.922 C 97.576 307.174, 82.906 314.110, 68.250 323.608 L 60 328.955 60 399.077 L 60 469.199 130.750 468.720 C 189.422 468.322, 203.445 467.959, 212.891 466.588 C 219.157 465.679, 247.957 461.336, 276.891 456.937 C 305.826 452.538, 333.471 448.526, 338.325 448.022 C 349.360 446.876, 353.255 445.018, 366.366 434.642 C 372.024 430.164, 402.800 406.250, 434.757 381.500 C 472.907 351.954, 493.267 335.562, 494.044 333.769 C 494.694 332.268, 494.968 330.018, 494.652 328.769 C 493.849 325.601, 487.211 319.030, 484.636 318.855 C 477.226 318.350, 467.402 321.294, 453.886 328.069 C 449.698 330.168, 430.871 341.374, 412.047 352.971 C 372.308 377.454, 370.865 378.233, 360.402 380.875 C 343.756 385.077, 339.960 385.261, 256.500 385.890 C 176.774 386.490, 175.429 386.533, 171 388.614 C 164.400 391.715, 161.987 394.824, 161.098 401.374 C 159.916 410.087, 155.250 413.385, 148.244 410.457 C 144.116 408.733, 142.672 405.066, 143.543 398.521 C 145.135 386.562, 153.350 376.258, 164.670 372.022 C 173.924 368.560, 182.195 368.064, 231.500 368.016 C 270.083 367.979, 279.663 367.696, 284.995 366.440 C 296.897 363.635, 298.415 360.744, 292.972 351.254 C 286.352 339.710, 272.667 329.783, 258.897 326.537 C 254.293 325.452, 246.714 325.025, 231.856 325.015 C 191.344 324.986, 175.180 321.166, 152.106 306.170 C 144.079 300.953, 140.617 299.997, 130 300.067 C 123.744 300.107, 118.992 300.861, 112 302.922 M 18 401.500 L 18 495 30 495 L 42 495 42 401.500 L 42 308 30 308 L 18 308 18 401.500" stroke="#F98B01" stroke-width=".2px" fill="#E7EBED" fill-rule="evenodd"/></svg>